PathFileType	4	(X/Y/Z)	C:/Users/opensim2020/Desktop/walking_exp_matlab/subject01_walking04_straight_01.trc	
DataRate	CameraRate	NumFrames	NumMarkers	Units	OrigDataRate	OrigDataStartFrame	OrigNumFrames	
100.00	100.00	6	43	mm	100.00	1001	216	
Frame#	Time	LFHD			RFHD			LBHD			RBHD			C7			T10			CLAV			STRN			RBAK			LSHO			LUPA			LELB			LFRM			LWRA			LWRB			LFIN			RSHO			RUPA			RELB			RFRM			RWRA			RWRB			RFIN			LASI			RASI			LPSI			RPSI			LTHI			LKNE			LTIB			LANK			LHEE			LTOE			RTHI			RKNE			RTIB			RANK			RHEE			RTOE			*39			*40			*41			*42			
		X1	Y1	Z1	X2	Y2	Z2	X3	Y3	Z3	X4	Y4	Z4	X5	Y5	Z5	X6	Y6	Z6	X7	Y7	Z7	X8	Y8	Z8	X9	Y9	Z9	X10	Y10	Z10	X11	Y11	Z11	X12	Y12	Z12	X13	Y13	Z13	X14	Y14	Z14	X15	Y15	Z15	X16	Y16	Z16	X17	Y17	Z17	X18	Y18	Z18	X19	Y19	Z19	X20	Y20	Z20	X21	Y21	Z21	X22	Y22	Z22	X23	Y23	Z23	X24	Y24	Z24	X25	Y25	Z25	X26	Y26	Z26	X27	Y27	Z27	X28	Y28	Z28	X29	Y29	Z29	X30	Y30	Z30	X31	Y31	Z31	X32	Y32	Z32	X33	Y33	Z33	X34	Y34	Z34	X35	Y35	Z35	X36	Y36	Z36	X37	Y37	Z37	X38	Y38	Z38	X39	Y39	Z39	X40	Y40	Z40	X41	Y41	Z41	X42	Y42	Z42	X43	Y43	Z43	

190	1.890	-1033.20862	838.48291	1673.51953	-918.31787	849.23297	1675.19128	-1030.40662	718.83820	1635.66577	-908.59515	727.01715	1636.63623	-987.61237	667.24091	1439.87598	-981.24994	632.89154	1144.94263	-991.21600	809.90381	1371.72656	-999.08203	855.53973	1218.53406	-908.00067	616.82202	1243.26526	-1151.34509	744.98456	1401.26685	-1234.15540	699.34753	1219.30762	-1231.28662	673.27209	1069.91089	-1256.58252	705.68127	959.86755	-1241.29980	781.46283	841.82703	-1261.79041	724.95599	838.77600	-1269.76331	768.98773	765.42560	-837.39233	751.23206	1398.75989	-732.50104	704.60522	1198.36499	-723.70288	715.53705	1072.77222	-691.63293	768.69281	963.68347	-708.40350	875.58923	871.17017	-671.06195	832.82520	861.01764	-669.15533	889.38263	797.75830	-1093.47632	809.62286	942.15009	-875.98315	810.03198	937.46368	-1045.19324	623.53778	950.25464	-900.65302	624.46460	954.24670	-1171.69800	873.88538	633.63910	-1158.71094	900.68500	501.53915	-1169.43237	832.94427	325.00354	-1123.02808	786.83221	109.81577	-1062.63965	749.23145	80.53499	-1151.09680	918.70612	55.87003	-839.20648	730.48810	604.59515	-872.08832	722.56177	446.52371	-872.26031	653.49976	283.71860	-934.30750	609.58881	83.85378	-986.67737	557.39386	52.12380	-939.31488	748.22437	39.41322	-940.36658	839.35114	1710.08630	-3101.78979	1973.05261	1023.41687	-3140.63110	2012.50159	1022.06195			 
191	1.900	-1033.39087	848.61200	1672.68958	-918.38275	859.26678	1674.52783	-1030.63330	728.89844	1635.02478	-908.91241	736.95026	1636.12036	-987.66486	677.02753	1439.32788	-981.44666	642.30804	1144.38574	-991.09363	819.65076	1371.03198	-998.70032	865.11713	1217.75708	-907.97321	626.31818	1242.83850	-1151.35168	754.87164	1400.44568	-1233.80261	708.49841	1218.41125	-1230.56909	681.51941	1069.36450	-1255.58264	712.17218	958.88483	-1240.00037	785.95343	839.77692	-1260.66724	729.23224	837.44812	-1268.35229	772.06842	763.18512	-837.21014	760.96503	1398.36340	-732.22760	714.63641	1197.95178	-723.03650	725.99152	1072.40088	-691.05811	781.13562	964.10175	-707.85504	889.43420	873.48560	-670.59967	846.50342	862.26935	-668.63092	904.43573	800.27173	-1093.49060	819.15546	941.46661	-875.78705	818.38354	936.35699	-1045.63281	632.91431	949.62213	-901.20728	633.35162	953.92102	-1171.18347	883.40948	632.83289	-1157.52148	910.57043	500.74509	-1169.44836	851.12024	321.36298	-1125.13074	817.88745	102.69238	-1065.20520	780.91589	72.02106	-1150.32751	953.28241	56.30405	-839.10205	736.14044	604.58643	-871.96313	726.13666	446.74756	-872.30609	655.40747	284.15985	-934.41632	610.14746	84.97808	-986.22913	557.82581	52.94505	-939.33649	748.13776	39.24113	-940.55280	849.41669	1709.38904	-3101.82275	1973.22314	1023.28723	-3140.55957	2012.57361	1022.00311			 
192	1.910	-1033.58533	858.76471	1671.82507	-918.65967	869.32861	1673.84033	-1030.99536	739.01160	1634.36243	-909.14484	746.95416	1635.53613	-987.95880	686.86865	1438.71497	-981.77155	651.81226	1143.87000	-990.97174	829.44781	1370.25549	-998.36176	874.77332	1216.96387	-908.00311	635.80743	1242.36304	-1151.39819	764.86200	1399.60571	-1233.60669	717.77954	1217.50659	-1229.92102	689.96942	1068.86792	-1254.68079	718.87988	957.90332	-1238.60107	790.26825	837.30505	-1259.74512	733.79236	836.25568	-1266.57739	774.92004	761.06927	-837.41315	770.57239	1397.81982	-731.98798	724.67389	1197.54919	-722.41827	736.53644	1071.96045	-690.54248	793.20160	964.46362	-707.48785	903.05273	875.73145	-670.21417	860.28070	863.71930	-668.26056	919.31787	802.72986	-1093.57690	828.83051	940.68488	-875.75421	827.25513	935.55566	-1046.07153	642.35724	948.89948	-901.77686	642.37128	953.55951	-1170.71301	892.26678	631.62091	-1156.52344	919.65613	499.38187	-1169.75342	868.65527	318.44443	-1126.96265	849.08374	96.88467	-1067.94885	812.49988	64.48814	-1149.29333	987.45447	57.42558	-839.06061	741.58447	604.45496	-871.69293	730.20007	446.59518	-872.16235	657.57593	285.00412	-934.32794	610.63293	85.72816	-986.62018	557.94299	54.35350	-939.30627	748.26526	39.21538	-940.80872	859.53125	1708.63440	-3101.94824	1973.05444	1023.27039	-3140.61426	2012.59875	1022.10889			 
193	1.920	-1033.87708	868.94403	1670.91138	-918.87689	879.30804	1672.99060	-1031.27039	749.12903	1633.55115	-909.49286	757.02026	1634.81714	-987.97296	696.79425	1438.08667	-982.18219	661.36523	1143.25720	-990.98010	839.20856	1369.45435	-998.03723	884.34003	1216.06470	-908.16003	645.37317	1241.79712	-1151.49524	774.93213	1398.72217	-1233.52368	727.15637	1216.59314	-1229.49426	698.59869	1068.18738	-1253.89966	725.85187	956.90271	-1237.15088	795.01086	835.04236	-1258.40918	738.59357	834.93878	-1265.09509	778.54364	759.07684	-837.61627	780.14807	1397.18445	-731.84851	734.65845	1197.04297	-721.94128	746.90125	1071.52991	-690.16290	805.15631	964.75470	-707.30542	916.23480	877.61774	-670.03534	873.98938	865.13110	-667.91467	933.76154	805.12207	-1093.74084	838.67902	939.94470	-875.70459	836.05743	934.76031	-1046.64050	652.03436	948.16217	-902.37622	651.49445	953.21277	-1170.33789	900.54388	629.93604	-1155.76563	928.26556	497.94125	-1169.75598	885.94946	315.32135	-1128.86169	879.99884	92.33110	-1070.94580	843.76501	58.49832	-1148.07788	1021.01733	59.41824	-838.74072	747.09283	604.54749	-871.53784	733.77570	446.50003	-872.22974	659.64185	285.67780	-934.24933	611.21063	86.72985	-986.36407	558.76141	55.43826	-939.16913	748.77472	39.43631	-941.10590	869.86536	1708.02551	-3101.76782	1973.14307	1023.38983	-3140.53052	2012.61572	1022.15051			 
194	1.930	-1034.24805	879.10474	1669.94055	-919.20709	889.40308	1672.12891	-1031.66260	759.28168	1632.69910	-909.99457	766.97510	1634.08936	-988.32739	706.64813	1437.37854	-982.79517	670.93878	1142.55273	-991.05731	849.03693	1368.58801	-997.93158	894.10107	1215.12695	-908.44708	654.95435	1241.19043	-1151.68896	785.05127	1397.81506	-1233.49487	736.70728	1215.68921	-1229.14331	707.51660	1067.65417	-1253.31799	733.17535	955.97308	-1235.77368	800.12494	833.06073	-1257.89966	743.88049	833.86835	-1263.95532	782.52460	757.27417	-837.57452	789.80023	1396.66858	-731.75604	744.78693	1196.56262	-721.46722	757.34851	1071.05713	-689.85327	817.03119	964.94745	-707.26428	929.19434	879.44843	-669.80963	887.22900	866.37177	-667.62787	948.09534	807.52570	-1093.95056	848.72046	939.16510	-875.76477	845.14954	934.03778	-1047.18091	661.82355	947.45941	-902.96631	660.71887	952.85248	-1170.12866	908.33728	627.90540	-1154.90466	936.53314	496.20026	-1169.83618	903.10583	312.53137	-1130.35571	910.28290	88.89577	-1072.73743	874.98907	53.46035	-1146.66785	1053.47058	62.72337	-838.94128	752.83685	604.48895	-871.53595	738.14587	446.36459	-872.17303	662.13586	286.43222	-934.21887	611.65106	87.80282	-986.65692	558.72339	57.21881	-939.24176	748.63904	39.18365	-941.51483	879.83392	1707.03516	-3101.90308	1973.14575	1023.42029	-3140.56836	2012.57996	1022.02985			 
195	1.940	-1034.68567	889.26074	1668.89807	-919.68164	899.44324	1671.20325	-1032.18811	769.39148	1631.80176	-910.35260	777.03198	1633.32349	-988.77771	716.50671	1436.54114	-983.41223	680.65247	1141.79272	-991.20673	858.88116	1367.65149	-997.79541	903.81470	1214.15186	-908.79370	664.54620	1240.55530	-1152.08289	795.22498	1396.87244	-1233.46765	746.49072	1214.69043	-1228.97083	716.57910	1066.91284	-1252.83276	740.79431	955.05768	-1235.09595	805.82550	831.29504	-1257.26501	749.50366	832.75452	-1262.86096	786.81909	755.43195	-838.01941	799.42780	1395.80566	-731.64502	754.91943	1196.12891	-721.03101	767.62946	1070.59167	-689.64221	828.72198	965.09674	-707.29791	941.97662	881.17206	-669.70441	900.34167	867.61963	-667.47278	961.97168	809.59570	-1094.10999	858.87311	938.32849	-875.79846	854.14398	933.32587	-1047.92395	671.76251	946.60968	-903.70996	670.17871	952.43445	-1169.94373	915.80798	625.59064	-1153.85815	944.81482	494.34244	-1170.31702	919.87817	310.32675	-1131.47070	939.62390	86.70026	-1074.51282	905.20416	49.73438	-1145.20105	1084.50598	67.22459	-838.81329	758.55341	604.47418	-871.09381	742.49152	446.38989	-872.04736	664.90704	287.13202	-934.20148	612.15350	88.78641	-986.65942	558.97601	58.92193	-939.08545	748.78717	39.25754	-941.95416	889.91333	1706.05933	-3101.91382	1973.21313	1023.42743	-3140.44556	2012.50330	1021.97083			 
